<svg width="40" height="40" viewBox="0 0 40 40" fill="none" xmlns="http://www.w3.org/2000/svg">
<g id="bell-ring">
<path id="Vector" d="M35 31.6668V33.3335H4.99996V31.6668L8.33329 28.3335V18.3335C8.33329 13.1668 11.7166 8.61683 16.6666 7.15016C16.6666 6.9835 16.6666 6.8335 16.6666 6.66683C16.6666 5.78277 17.0178 4.93493 17.6429 4.30981C18.2681 3.68469 19.1159 3.3335 20 3.3335C20.884 3.3335 21.7319 3.68469 22.357 4.30981C22.9821 4.93493 23.3333 5.78277 23.3333 6.66683C23.3333 6.8335 23.3333 6.9835 23.3333 7.15016C28.2833 8.61683 31.6666 13.1668 31.6666 18.3335V28.3335L35 31.6668ZM23.3333 35.0002C23.3333 35.8842 22.9821 36.7321 22.357 37.3572C21.7319 37.9823 20.884 38.3335 20 38.3335C19.1159 38.3335 18.2681 37.9823 17.6429 37.3572C17.0178 36.7321 16.6666 35.8842 16.6666 35.0002M32.9166 5.31683L30.55 7.6835C33.4 10.5002 35 14.3335 35 18.3335H38.3333C38.3333 13.4502 36.4 8.75016 32.9166 5.31683ZM1.66663 18.3335H4.99996C4.99996 14.3335 6.59996 10.5002 9.44996 7.6835L7.08329 5.31683C3.59996 8.75016 1.66663 13.4502 1.66663 18.3335Z" fill="#FF7B74"/>
</g>
</svg>
