<svg width="12" height="12" viewBox="0 0 12 12" fill="none" xmlns="http://www.w3.org/2000/svg">
<g id="Group 55">
<path id="Vector" d="M4.9125 11.25C4.78321 11.25 4.65921 11.1986 4.56779 11.1072C4.47636 11.0158 4.425 10.8918 4.425 10.7625V9.3H2.475C2.21641 9.3 1.96842 9.19728 1.78557 9.01443C1.60272 8.83158 1.5 8.58359 1.5 8.325V2.475C1.5 1.93387 1.93875 1.5 2.475 1.5H10.275C10.5336 1.5 10.7816 1.60272 10.9644 1.78557C11.1473 1.96842 11.25 2.21641 11.25 2.475V8.325C11.25 8.58359 11.1473 8.83158 10.9644 9.01443C10.7816 9.19728 10.5336 9.3 10.275 9.3H7.30125L5.4975 11.1086C5.4 11.2013 5.27813 11.25 5.15625 11.25H4.9125ZM8.8125 5.8875V4.9125H7.8375V5.8875H8.8125ZM6.8625 5.8875V4.9125H5.8875V5.8875H6.8625ZM4.9125 5.8875V4.9125H3.9375V5.8875H4.9125Z" fill="#B8B8B8"/>
</g>
</svg>
