<svg width="48" height="40" viewBox="0 0 48 40" fill="none" xmlns="http://www.w3.org/2000/svg">
<g id="Group 96">
<path id="Subtract" fill-rule="evenodd" clip-rule="evenodd" d="M9.11801 3.80829H4.12904C3.03395 3.80829 1.98371 4.20952 1.20937 4.92371C0.435023 5.6379 0 6.60655 0 7.61657V30.4663C0 31.4763 0.435023 32.445 1.20937 33.1592C1.98371 33.8734 3.03395 34.2746 4.12904 34.2746H30.1739C31.2307 34.2746 32.0001 33.2607 32.0001 32.1973C32.0001 27.6084 35.6973 23.8883 40.2582 23.8883C40.8077 23.8883 41.2904 23.4643 41.2904 22.9114V7.61657C41.2904 6.60655 40.8554 5.6379 40.0811 4.92371C39.3067 4.20952 38.2565 3.80829 37.1614 3.80829H32.1724C31.3976 3.80829 30.651 3.51606 30.0798 2.98929L27.7267 0.818994C27.1556 0.292222 26.409 0 25.6342 0H15.6562C14.8815 0 14.1348 0.292223 13.5637 0.818995L11.2106 2.98929C10.6394 3.51606 9.8928 3.80829 9.11801 3.80829ZM13.346 12.3093C15.2819 10.5238 17.9075 9.52072 20.6452 9.52072C23.3829 9.52072 26.0085 10.5238 27.9444 12.3093C29.8803 14.0948 30.9678 16.5164 30.9678 19.0414C30.9678 21.5665 29.8803 23.9881 27.9444 25.7736C26.0085 27.5591 23.3829 28.5622 20.6452 28.5622C17.9075 28.5622 15.2819 27.5591 13.346 25.7736C11.4102 23.9881 10.3226 21.5665 10.3226 19.0414C10.3226 16.5164 11.4102 14.0948 13.346 12.3093ZM25.0247 15.0021C23.8632 13.9308 22.2878 13.329 20.6452 13.329C19.0026 13.329 17.4272 13.9308 16.2657 15.0021C15.1042 16.0734 14.4516 17.5264 14.4516 19.0414C14.4516 20.5565 15.1042 22.0094 16.2657 23.0807C17.4272 24.152 19.0026 24.7539 20.6452 24.7539C22.2878 24.7539 23.8632 24.152 25.0247 23.0807C26.1862 22.0094 26.8388 20.5565 26.8388 19.0414C26.8388 17.5264 26.1862 16.0734 25.0247 15.0021Z" fill="#D7D7D7"/>
<path id="Vector 11 (Stroke)" fill-rule="evenodd" clip-rule="evenodd" d="M34.4346 33.3334C34.4346 32.4837 35.1353 31.7949 35.9998 31.7949H46.4346C47.299 31.7949 47.9998 32.4837 47.9998 33.3334C47.9998 34.1831 47.299 34.8718 46.4346 34.8718H35.9998C35.1353 34.8718 34.4346 34.1831 34.4346 33.3334Z" fill="#D7D7D7"/>
<path id="Vector 12 (Stroke)" fill-rule="evenodd" clip-rule="evenodd" d="M41.2176 40C40.3531 40 39.6523 39.3112 39.6523 38.4615L39.6523 28.2051C39.6523 27.3555 40.3531 26.6667 41.2176 26.6667C42.082 26.6667 42.7828 27.3555 42.7828 28.2051L42.7828 38.4615C42.7828 39.3112 42.082 40 41.2176 40Z" fill="#D7D7D7"/>
</g>
</svg>
