<svg width="40" height="34" viewBox="0 0 40 34" fill="none" xmlns="http://www.w3.org/2000/svg">
<path fill-rule="evenodd" clip-rule="evenodd" d="M7.59832 3.23704H3.44086C2.52829 3.23704 1.65309 3.57809 1.0078 4.18515C0.362518 4.79222 0 5.61557 0 6.47409V25.8964C0 26.7549 0.362518 27.5782 1.0078 28.1853C1.65309 28.7924 2.52829 29.1334 3.44086 29.1334H25.1448C26.0255 29.1334 26.6667 28.2716 26.6667 27.3677C26.6667 23.4671 29.7477 20.3051 33.5484 20.3051C34.0064 20.3051 34.4086 19.9447 34.4086 19.4747V6.47409C34.4086 5.61557 34.0461 4.79222 33.4008 4.18515C32.7555 3.57809 31.8803 3.23704 30.9677 3.23704H26.8103C26.1646 3.23704 25.5424 2.98865 25.0665 2.5409L23.1056 0.696145C22.6296 0.248389 22.0074 0 21.3618 0H13.0468C12.4012 0 11.779 0.24839 11.303 0.696145L9.34213 2.5409C8.86618 2.98866 8.24398 3.23704 7.59832 3.23704ZM11.1217 10.4629C12.7349 8.94522 14.9229 8.09261 17.2043 8.09261C19.4857 8.09261 21.6737 8.94522 23.2869 10.4629C24.9002 11.9805 25.8065 14.0389 25.8065 16.1852C25.8065 18.3315 24.9002 20.3899 23.2869 21.9076C21.6737 23.4252 19.4857 24.2778 17.2043 24.2778C14.9229 24.2778 12.7349 23.4252 11.1217 21.9076C9.50845 20.3899 8.60215 18.3315 8.60215 16.1852C8.60215 14.0389 9.50845 11.9805 11.1217 10.4629ZM20.8539 12.7518C19.886 11.8412 18.5732 11.3297 17.2043 11.3297C15.8354 11.3297 14.5226 11.8412 13.5547 12.7518C12.5868 13.6624 12.043 14.8974 12.043 16.1852C12.043 17.473 12.5868 18.708 13.5547 19.6186C14.5226 20.5292 15.8354 21.0408 17.2043 21.0408C18.5732 21.0408 19.886 20.5292 20.8539 19.6186C21.8218 18.708 22.3656 17.473 22.3656 16.1852C22.3656 14.8974 21.8218 13.6624 20.8539 12.7518Z" fill="#D7D7D7"/>
<path fill-rule="evenodd" clip-rule="evenodd" d="M28.6953 28.3331C28.6953 27.6109 29.2793 27.0254 29.9997 27.0254H38.6953C39.4157 27.0254 39.9997 27.6109 39.9997 28.3331C39.9997 29.0553 39.4157 29.6408 38.6953 29.6408H29.9997C29.2793 29.6408 28.6953 29.0553 28.6953 28.3331Z" fill="#D7D7D7"/>
<path fill-rule="evenodd" clip-rule="evenodd" d="M34.3473 34C33.6269 34 33.043 33.4145 33.043 32.6923L33.043 23.9744C33.043 23.2521 33.6269 22.6667 34.3473 22.6667C35.0677 22.6667 35.6517 23.2521 35.6517 23.9744L35.6517 32.6923C35.6517 33.4145 35.0677 34 34.3473 34Z" fill="#D7D7D7"/>
</svg>
