<svg width="36" height="36" viewBox="0 0 36 36" fill="none" xmlns="http://www.w3.org/2000/svg">
<g id="My Icon design/Account">
<circle id="Ellipse 47" cx="18" cy="18" r="15" fill="#EBFFE2"/>
<path id="Ellipse 49" d="M21 15.2609C21 16.6666 20.6012 17.8961 20.008 18.7473C19.4124 19.6018 18.6867 20 18 20C17.3133 20 16.5876 19.6018 15.992 18.7473C15.3988 17.8961 15 16.6666 15 15.2609C15 13.7509 15.2434 12.5233 15.733 11.7055C16.1776 10.9628 16.852 10.5 18 10.5C18.6724 10.5 19.1517 10.6341 19.5017 10.8285C19.8479 11.0209 20.1228 11.3029 20.3426 11.6878C20.8048 12.4969 21 13.7175 21 15.2609Z" stroke="#395D1D" stroke-width="2"/>
<rect id="Rectangle 650" x="12" y="15" width="12" height="11" rx="2" fill="#AFD57F"/>
<circle id="Ellipse 50" cx="18" cy="19" r="1" fill="#395D1D"/>
<rect id="Rectangle 651" x="17" y="19" width="2" height="3.2" rx="1" fill="#395D1D"/>
</g>
</svg>
