<svg width="24" height="23" viewBox="0 0 24 23" fill="none" xmlns="http://www.w3.org/2000/svg">
<g id="Group 111">
<path id="Vector 13" d="M22 0H2C0.895431 0 0 0.895428 0 2V15.7292C0 16.8337 0.895431 17.7292 2 17.7292H7C7.55228 17.7292 8 18.1769 8 18.7292V20.7572C8 21.6226 9.0246 22.0795 9.66832 21.5011L13.5816 17.9853C13.7651 17.8204 14.0032 17.7292 14.2499 17.7292H22C23.1046 17.7292 24 16.8337 24 15.7292V2C24 0.895431 23.1046 0 22 0Z" fill="#CEE9C5"/>
<g id="Group 110">
<ellipse id="Ellipse 44" cx="6.2398" cy="9.10352" rx="1.44" ry="1.4375" fill="white"/>
<ellipse id="Ellipse 45" cx="11.9996" cy="9.10352" rx="1.44" ry="1.4375" fill="white"/>
<ellipse id="Ellipse 46" cx="17.7593" cy="9.10352" rx="1.44" ry="1.4375" fill="white"/>
</g>
</g>
</svg>
