<svg width="36" height="36" viewBox="0 0 36 36" fill="none" xmlns="http://www.w3.org/2000/svg">
<g id="My Icon design/Notification">
<circle id="Ellipse 47" cx="18" cy="18" r="15" fill="#EDF5FF"/>
<path id="Vector" d="M25 22.9524V23.7143H11V22.9524L12.5556 21.4286V16.8571C12.5556 14.4952 14.1344 12.4152 16.4444 11.7448C16.4444 11.6686 16.4444 11.6 16.4444 11.5238C16.4444 11.1197 16.6083 10.7321 16.9001 10.4463C17.1918 10.1605 17.5874 10 18 10C18.4126 10 18.8082 10.1605 19.0999 10.4463C19.3917 10.7321 19.5556 11.1197 19.5556 11.5238C19.5556 11.6 19.5556 11.6686 19.5556 11.7448C21.8656 12.4152 23.4444 14.4952 23.4444 16.8571V21.4286L25 22.9524ZM19.5556 24.4762C19.5556 24.8803 19.3917 25.2679 19.0999 25.5537C18.8082 25.8395 18.4126 26 18 26C17.5874 26 17.1918 25.8395 16.9001 25.5537C16.6083 25.2679 16.4444 24.8803 16.4444 24.4762" fill="#85A0FF"/>
</g>
</svg>
