<svg width="120" height="120" viewBox="0 0 120 120" fill="none" xmlns="http://www.w3.org/2000/svg">
<path d="M52.1912 8.71277C56.3587 4.0628 63.6413 4.0628 67.8088 8.71277V8.71277C70.5846 11.8099 74.9285 12.9738 78.881 11.6795V11.6795C84.8151 9.73632 91.1221 13.3776 92.4063 19.4884V19.4884C93.2616 23.5585 96.4415 26.7384 100.512 27.5937V27.5937C106.622 28.8779 110.264 35.1849 108.32 41.119V41.119C107.026 45.0715 108.19 49.4154 111.287 52.1912V52.1912C115.937 56.3587 115.937 63.6413 111.287 67.8088V67.8088C108.19 70.5846 107.026 74.9285 108.32 78.881V78.881C110.264 84.8151 106.622 91.1221 100.512 92.4063V92.4063C96.4415 93.2616 93.2616 96.4415 92.4063 100.512V100.512C91.1221 106.622 84.8151 110.264 78.881 108.32V108.32C74.9285 107.026 70.5846 108.19 67.8088 111.287V111.287C63.6413 115.937 56.3587 115.937 52.1912 111.287V111.287C49.4154 108.19 45.0715 107.026 41.119 108.32V108.32C35.1849 110.264 28.8779 106.622 27.5937 100.512V100.512C26.7384 96.4415 23.5585 93.2616 19.4884 92.4063V92.4063C13.3776 91.1221 9.73632 84.8151 11.6795 78.881V78.881C12.9738 74.9285 11.8099 70.5846 8.71277 67.8088V67.8088C4.0628 63.6413 4.0628 56.3587 8.71277 52.1912V52.1912C11.8099 49.4154 12.9738 45.0715 11.6795 41.119V41.119C9.73632 35.1849 13.3776 28.8779 19.4884 27.5937V27.5937C23.5585 26.7384 26.7384 23.5585 27.5937 19.4884V19.4884C28.8779 13.3776 35.1849 9.73632 41.119 11.6795V11.6795C45.0715 12.9738 49.4154 11.8099 52.1912 8.71277V8.71277Z" fill="#FF7B74"/>
<path d="M41 59.5455L53.2077 75.4667C53.6076 75.9882 54.3932 75.9888 54.7939 75.4679L79 44" stroke="white" stroke-width="10" stroke-linecap="round"/>
</svg>
